<?xml version="1.0" encoding="utf-8"?>
<!-- Svg Vector Icons : http://www.onlinewebfonts.com/icon -->
<!DOCTYPE svg PUBLIC "-//W3C//DTD SVG 1.1//EN" "http://www.w3.org/Graphics/SVG/1.1/DTD/svg11.dtd">
<svg version="1.1" xmlns="http://www.w3.org/2000/svg" xmlns:xlink="http://www.w3.org/1999/xlink" x="0px" y="0px" viewBox="0 0 1000 1000" enable-background="new 0 0 1000 1000" xml:space="preserve">
<metadata> Svg Vector Icons : http://www.onlinewebfonts.com/icon </metadata>
<g><g transform="translate(0.000000,511.000000) scale(0.100000,-0.100000)"><path fill="#FA9F1D" d="M3257.8,4865.5v-156.4l219.8-13.9c1429.4-87.1,2639.1-1077,2995.4-2455c57.4-213.8,110.9-588,110.9-756.3v-106.9h158.4h158.4v67.3c0,37.6-9.9,158.4-19.8,271.2c-176.2,1732.3-1552.2,3108.3-3284.5,3284.5c-112.9,9.9-233.6,19.8-271.2,19.8h-67.3V4865.5z"/><path fill="#FA9F1D" d="M3257.8,4075.5v-158.4l184.1-11.9c441.5-29.7,871.1-176.2,1251.2-425.7c180.2-118.8,461.3-390,603.8-580.1c277.2-374.2,457.3-865.2,489-1338.3l11.9-184.1h158.4h158.4l-13.9,174.2c-57.4,718.7-334.6,1318.5-843.4,1825.4c-506.8,508.8-1106.7,786-1825.4,843.4l-174.2,13.9V4075.5z"/><path fill="#FA9F1D" d="M3257.8,3277.7v-158.4h87.1c47.5,0,160.4-13.9,251.4-31.7c702.8-132.6,1239.4-669.2,1372-1372c17.8-91.1,31.7-203.9,31.7-251.4v-87.1h158.4h158.4v55.4c0,114.8-59.4,435.6-104.9,568.2c-217.8,633.5-696.9,1112.7-1330.4,1330.4c-132.7,45.5-453.4,104.9-568.2,104.9h-55.4V3277.7z"/><path fill="#FA9F1D" d="M1060.2,2935.2c-99-31.7-283.1-221.7-312.8-322.7c-17.8-61.4-23.8-609.8-23.8-2247.1v-2167.9L593-1857.9c-184.1-81.2-326.7-217.8-417.7-403.9L100-2412.3v-643.4v-645.4l63.4-132.6c71.3-152.5,194-293,314.8-364.3l83.1-49.5l5.9-164.3c7.9-150.5,13.9-174.2,69.3-243.5c106.9-134.6,148.5-144.5,562.3-144.5c413.8,0,453.4,9.9,562.3,146.5c49.5,59.4,61.4,95,67.3,199.9l7.9,128.7h3084.5h3084.5l7.9-128.7c5.9-104.9,17.8-140.5,67.3-201.9c106.9-134.6,148.5-144.5,562.3-144.5c413.8,0,453.4,9.9,562.3,146.5c51.5,61.4,61.4,95,67.3,207.9l7.9,132.6l128.7,57.4c182.1,79.2,324.7,217.8,415.8,401.9l75.2,150.5v643.4v645.4l-63.4,132.7c-87.1,186.1-215.8,316.8-399.9,407.8l-148.5,73.2l-3807.1,5.9l-3807.2,4v2160c0,1633.3-5.9,2181.7-23.8,2243.1c-15.8,53.5-61.4,118.8-134.6,190.1C1369.1,2951,1234.4,2990.6,1060.2,2935.2z M1317.6,2604.6c39.6-39.6,39.6-65.3,39.6-2217.4v-2177.8h-158.4h-158.4V387.2c0,2152,0,2177.8,39.6,2217.4c25.7,25.7,65.3,39.6,118.8,39.6C1252.2,2644.1,1291.8,2630.3,1317.6,2604.6z M9298.1-2137.1c47.5-17.8,120.8-63.4,160.4-102.9c124.7-122.8,134.6-178.2,134.6-817.7s-9.9-694.9-134.6-817.7C9312-4017.9,9676.3-4008,5002-4008c-4723.8,0-4325.9-13.9-4474.3,148.5c-43.6,45.5-87.1,118.8-99,160.4c-29.7,102.9-27.7,1180,0,1282.9c27.7,99,164.3,243.5,265.3,279.1c67.3,23.8,710.7,27.7,4298.1,29.7C8745.8-2107.4,9220.9-2111.3,9298.1-2137.1z M1515.6-4403.9v-79.2h-316.8H882v79.2v79.2h316.8h316.8V-4403.9z M8959.6-4403.9v-79.2h-316.8h-316.8v79.2v79.2h316.8h316.8V-4403.9z"/><path fill="#FA9F1D" d="M931.5-2451.9c-73.3-33.7-158.4-122.7-186.1-196c-11.9-31.7-21.8-209.9-21.8-415.8c0-407.9,11.9-449.4,144.5-556.3l77.2-61.4l1180-5.9c1328.4-5.9,1253.2-13.9,1379.9,142.6l59.4,75.2v411.8v411.8l-61.4,77.2c-120.8,152.4-55.4,144.5-1354.2,144.5C1224.5-2426.1,979-2430.1,931.5-2451.9z M3257.8-3057.7v-316.8H2149.1H1040.4v316.8v316.8h1108.7h1108.7V-3057.7z"/><path fill="#FA9F1D" d="M7059-3057.7v-158.4h158.4h158.4v158.4v158.4h-158.4H7059V-3057.7z"/><path fill="#FA9F1D" d="M7692.5-3057.7v-158.4h158.4h158.4v158.4v158.4h-158.4h-158.4V-3057.7z"/><path fill="#FA9F1D" d="M8326.1-3057.7v-158.4h158.4h158.4v158.4v158.4h-158.4h-158.4V-3057.7z"/><path fill="#FA9F1D" d="M8959.6-3057.7v-158.4H9118h158.4v158.4v158.4H9118h-158.4V-3057.7z"/><path fill="#FA9F1D" d="M3257.8,2485.8v-158.4h65.3c196,0,475.2-126.7,625.6-287.1c148.5-156.4,259.4-413.8,259.4-597.9v-65.3h158.4h158.4v55.4c-2,118.8-63.4,336.6-142.5,496.9c-118.8,237.6-336.6,457.3-572.2,572.2c-160.4,79.2-378.1,140.6-496.9,142.5h-55.4V2485.8z"/><path fill="#FA9F1D" d="M3119.2,1826.5c-99-31.7-283.1-221.7-312.8-322.7c-51.5-174.2-13.9-295,134.6-443.5c209.9-211.8,423.7-211.8,633.5,0c211.8,209.9,211.8,423.7,0,633.5C3428,1842.3,3293.4,1881.9,3119.2,1826.5z M3376.6,1495.9c25.7-25.7,39.6-65.3,39.6-118.8c0-104.9-53.5-158.4-158.4-158.4s-158.4,53.5-158.4,158.4c0,53.5,13.9,93.1,39.6,118.8s65.3,39.6,118.8,39.6S3350.8,1521.6,3376.6,1495.9z"/></g></g>
</svg>