<?xml version="1.0" encoding="UTF-8"?> <svg xmlns="http://www.w3.org/2000/svg" viewBox="0 0 232.47 195.33"><defs></defs><path fill="#FA9F1D" d="M164.53,6.55a38.15,38.15,0,0,1,45.06,29.57A2.88,2.88,0,0,0,215.22,35a43.91,43.91,0,0,0-51.86-34,2.88,2.88,0,0,0,1.17,5.63Z"></path><path fill="#FA9F1D" d="M167.2,19.42a25,25,0,0,1,29.52,19.37,2.88,2.88,0,1,0,5.63-1.17A30.76,30.76,0,0,0,166,13.79a2.88,2.88,0,1,0,1.17,5.63Z"></path><path fill="#FA9F1D" d="M170,32.72a11.38,11.38,0,0,1,13.46,8.83,2.88,2.88,0,1,0,5.63-1.17,17.15,17.15,0,0,0-20.26-13.29A2.88,2.88,0,0,0,170,32.72Z"></path><path fill="#FA9F1D" d="M215.54,104.59a8.14,8.14,0,0,0,10.59-1.29l4.2-4.6a8.2,8.2,0,0,0-1.51-12.35L196,64.54a2.87,2.87,0,1,0-3.19,4.78l32.8,21.81a2.45,2.45,0,0,1,1.07,1.74,2.42,2.42,0,0,1-.62,1.95l-4.2,4.6a2.45,2.45,0,0,1-3.17.39L142.29,49a2.87,2.87,0,0,0-3.18,0L62.67,99.81a2.43,2.43,0,0,1-3.16-.39l-4.2-4.6a2.42,2.42,0,0,1-.62-1.95,2.45,2.45,0,0,1,1.07-1.74l84.94-56.5,41,27.3a2.87,2.87,0,1,0,3.18-4.78L142.29,28.79a2.87,2.87,0,0,0-3.18,0l-25.61,17V42.27h.66a3.7,3.7,0,0,0,3.7-3.7V30.25a3.7,3.7,0,0,0-3.7-3.69h-29a3.69,3.69,0,0,0-3.69,3.69v8.32a3.7,3.7,0,0,0,3.69,3.7h.66v22L52.58,86.35A8.18,8.18,0,0,0,51.07,98.7l4.2,4.6a8.14,8.14,0,0,0,10.58,1.29l7.34-4.88v30.08a2.88,2.88,0,1,0,5.75,0V95.89L140.7,54.81l61.76,41.08V176H78.94V143.23a2.88,2.88,0,0,0-5.75,0V176H61.34a6.21,6.21,0,0,0-6.2,6.2v6.92a6.21,6.21,0,0,0,6.2,6.2H220.06a6.21,6.21,0,0,0,6.2-6.2v-6.92a6.21,6.21,0,0,0-6.2-6.2H208.2V99.71ZM107.76,49.65,91.55,60.43V42.27h16.21ZM87.19,32.3h24.92v4.22H87.19ZM220.06,181.76a.45.45,0,0,1,.45.45v6.92a.46.46,0,0,1-.45.46H61.34a.47.47,0,0,1-.46-.46v-6.92a.46.46,0,0,1,.46-.45Z"></path><path fill="#FA9F1D" d="M140.7,145.11a19.29,19.29,0,1,0-19.28-19.29A19.31,19.31,0,0,0,140.7,145.11Zm0-32.82a13.54,13.54,0,1,1-13.54,13.53A13.55,13.55,0,0,1,140.7,112.29Z"></path><path fill="#FA9F1D" d="M109.23,117.17a5.34,5.34,0,0,0-5.34,5.33v6.65a5.34,5.34,0,0,0,5.34,5.33h2.42a30.17,30.17,0,0,0,2.39,5.76L112.32,142a5.34,5.34,0,0,0,0,7.54l4.7,4.7a5.34,5.34,0,0,0,7.54,0l1.72-1.72a29.54,29.54,0,0,0,5.76,2.39v2.43a5.34,5.34,0,0,0,5.34,5.33H144a5.33,5.33,0,0,0,5.33-5.33v-2.43a29.63,29.63,0,0,0,5.77-2.39l1.71,1.72a5.35,5.35,0,0,0,7.55,0l4.69-4.7a5.34,5.34,0,0,0,0-7.54l-1.71-1.72a30.83,30.83,0,0,0,2.39-5.76h2.42a5.33,5.33,0,0,0,5.33-5.33V122.5a5.33,5.33,0,0,0-5.33-5.33h-2.42a30.55,30.55,0,0,0-2.39-5.76l1.71-1.72a5.31,5.31,0,0,0,0-7.54l-4.69-4.7a5.35,5.35,0,0,0-7.55,0l-1.71,1.72a29.63,29.63,0,0,0-5.77-2.39V94.35A5.33,5.33,0,0,0,144,89h-6.64A5.34,5.34,0,0,0,132,94.35v2.43a29.54,29.54,0,0,0-5.76,2.39l-1.72-1.72a5.34,5.34,0,0,0-7.54,0l-4.7,4.7a5.34,5.34,0,0,0,0,7.54l1.72,1.72a29.91,29.91,0,0,0-2.39,5.76Zm7.86,1.89a23.82,23.82,0,0,1,2.13-5.14,5.36,5.36,0,0,0-.9-6.36l-1.64-1.64,4.11-4.12,1.65,1.65a5.35,5.35,0,0,0,6.35.89,24.78,24.78,0,0,1,5.14-2.13,5.35,5.35,0,0,0,3.86-5.12V94.77h5.82v2.32a5.34,5.34,0,0,0,3.85,5.12,24.34,24.34,0,0,1,5.14,2.13,5.36,5.36,0,0,0,6.36-.89l1.64-1.65,4.12,4.12-1.65,1.64a5.36,5.36,0,0,0-.89,6.36,24.34,24.34,0,0,1,2.13,5.14,5.36,5.36,0,0,0,5.12,3.86h2.33v5.81h-2.33a5.36,5.36,0,0,0-5.12,3.86,24.34,24.34,0,0,1-2.13,5.14,5.36,5.36,0,0,0,.89,6.36l1.65,1.64-4.12,4.11L159,148.2a5.35,5.35,0,0,0-6.36-.89,24.34,24.34,0,0,1-5.14,2.13,5.33,5.33,0,0,0-3.85,5.12v2.32h-5.82v-2.32a5.34,5.34,0,0,0-3.86-5.12,24.78,24.78,0,0,1-5.14-2.13,5.33,5.33,0,0,0-6.35.89l-1.65,1.64-4.11-4.11,1.64-1.64a5.36,5.36,0,0,0,.9-6.36,23.82,23.82,0,0,1-2.13-5.14,5.36,5.36,0,0,0-5.13-3.86h-2.32v-5.81H112A5.36,5.36,0,0,0,117.09,119.06Z"></path></svg> 