<?xml version="1.0" encoding="iso-8859-1"?>
<!-- Generator: Adobe Illustrator 18.0.0, SVG Export Plug-In . SVG Version: 6.00 Build 0)  -->
<!DOCTYPE svg PUBLIC "-//W3C//DTD SVG 1.1//EN" "http://www.w3.org/Graphics/SVG/1.1/DTD/svg11.dtd">
<svg version="1.1" id="Capa_1" xmlns="http://www.w3.org/2000/svg" xmlns:xlink="http://www.w3.org/1999/xlink" x="0px" y="0px"
	 viewBox="0 0 471.367 471.367" style="enable-background:new 0 0 471.367 471.367;" xml:space="preserve">
<g>
	<path fill="#FA9F1D" d="M235.684,202.059c24.399,0,44.25-14.467,44.25-32.25c0-17.782-19.851-32.25-44.25-32.25
		c-24.399,0-44.25,14.468-44.25,32.25C191.434,187.592,211.284,202.059,235.684,202.059z M235.684,146.059
		c19.713,0,35.75,10.654,35.75,23.75s-16.037,23.75-35.75,23.75c-19.713,0-35.75-10.654-35.75-23.75
		S215.971,146.059,235.684,146.059z"/>
	<path fill="#FA9F1D" d="M195.684,107.059h48c2.348,0,4.25-1.902,4.25-4.25c0-2.347-1.902-4.25-4.25-4.25h-48c-2.348,0-4.25,1.903-4.25,4.25
		C191.434,105.156,193.336,107.059,195.684,107.059z"/>
	<path fill="#FA9F1D" d="M471.355,253.014c0.068-3.252-0.434-6.655-1.531-10.122l-42.76-135.087c-5.51-17.407-24.847-31.569-43.105-31.569H87.415
		c-18.259,0-37.596,14.162-43.106,31.568L1.545,242.892c-1.098,3.466-1.6,6.868-1.531,10.119C0.012,253.055,0,253.097,0,253.143
		v107.739c0,18.886,15.365,34.25,34.25,34.25h402.867c18.886,0,34.25-15.364,34.25-34.25V253.143
		C471.367,253.099,471.356,253.058,471.355,253.014z M52.412,110.369c0.355-1.12,0.792-2.224,1.291-3.311h106.648
		c2.347,0,4.25-1.902,4.25-4.25c0-2.347-1.903-4.25-4.25-4.25H59.293c7.142-8.138,17.981-13.823,28.122-13.823h296.543
		c14.574,0,30.604,11.739,35.002,25.635l37.095,117.188H348.818c-2.348,0-4.25,1.903-4.25,4.25c0,2.348,1.902,4.25,4.25,4.25
		h109.927l2.975,9.398c1.988,6.282,1.352,12.108-1.796,16.405c-3.146,4.297-8.509,6.663-15.099,6.663H26.542
		c-6.59,0-11.952-2.366-15.099-6.663s-3.784-10.123-1.795-16.405l0.759-2.398h49.276c2.347,0,4.25-1.902,4.25-4.25
		c0-2.347-1.903-4.25-4.25-4.25H13.099L52.412,110.369z M437.117,386.632H34.25c-14.198,0-25.75-11.552-25.75-25.75v-4.823h398.184
		c2.348,0,4.25-1.902,4.25-4.25c0-2.347-1.902-4.25-4.25-4.25H8.5v-19h82.184c2.348,0,4.25-1.902,4.25-4.25
		c0-2.347-1.902-4.25-4.25-4.25H8.5v-49.02c4.679,3.889,10.901,5.986,18.042,5.986h418.283c7.141,0,13.363-2.098,18.042-5.986
		v89.843C462.867,375.08,451.315,386.632,437.117,386.632z"/>
</g>
<g>
</g>
<g>
</g>
<g>
</g>
<g>
</g>
<g>
</g>
<g>
</g>
<g>
</g>
<g>
</g>
<g>
</g>
<g>
</g>
<g>
</g>
<g>
</g>
<g>
</g>
<g>
</g>
<g>
</g>
</svg>
